<svg width="100" height="100" viewBox="0 0 100 100" fill="none" xmlns="http://www.w3.org/2000/svg">
<path d="M3.33329 19.9836C1.49165 19.9836 0 21.4753 0 23.3169V26.6502C0 28.2169 1.09165 29.5252 2.54997 29.8835C2.79996 29.9418 3.06663 29.9835 3.33329 29.9835H6.67491C6.67491 30.2168 14.5831 70.6913 14.5831 70.6913C14.8831 72.2246 16.1248 73.3246 17.5664 73.3246H70.0491L78.549 29.9835H82.2739V29.8835L83.3239 26.6502V19.9836H3.33329Z" fill="url(#paint0_linear_33_2506)"/>
<path d="M0 26.6501C0 28.2168 1.09165 29.5251 2.54997 29.8834H82.2822L83.3322 26.6501H0Z" fill="#F57C00"/>
<path d="M13.7832 37.0167L19.7081 63.6913C19.8747 64.458 20.5497 64.9996 21.3331 64.9996H24.9997C25.9163 64.9996 26.6663 64.2496 26.6663 63.333V36.6583C26.6663 35.7417 25.9163 34.9917 24.9997 34.9917H15.4081C14.3415 34.9917 13.5498 35.975 13.7832 37.0167Z" fill="#F57C00"/>
<path d="M66.2158 37.0167L60.2909 63.6913C60.1242 64.458 59.4492 64.9996 58.6659 64.9996H54.9993C54.0826 64.9996 53.3326 64.2496 53.3326 63.333V36.6583C53.3326 35.7417 54.0826 34.9917 54.9993 34.9917H64.5908C65.6491 34.9917 66.4491 35.975 66.2158 37.0167Z" fill="#F57C00"/>
<path d="M35.1912 34.9917H44.7994C45.7911 34.9917 46.5661 35.8584 46.4577 36.8417L43.4994 63.508C43.4078 64.3496 42.6911 64.9913 41.8411 64.9913H38.1578C37.3078 64.9913 36.5912 64.3496 36.4995 63.508L33.5329 36.8333C33.4246 35.85 34.1995 34.9917 35.1912 34.9917Z" fill="#F57C00"/>
<path opacity="0.2" d="M80.8323 22.4836V26.2586L80.4323 27.4919H78.5573C77.3656 27.4919 76.3323 28.3419 76.1073 29.5085L67.9991 70.833H17.5664C17.3664 70.833 17.1081 70.5997 17.0331 70.2163C14.9165 59.3915 9.40821 31.1835 9.14155 29.6502C8.97488 28.4252 7.93323 27.4919 6.66658 27.4919H3.33329C3.31662 27.4919 3.25829 27.4919 3.14163 27.4585C2.8333 27.3835 2.49997 27.1002 2.49997 26.6502V23.3169C2.49997 22.8586 2.87496 22.4836 3.33329 22.4836H80.8323ZM83.3322 19.9836H3.33329C1.49165 19.9836 0 21.4753 0 23.3169V26.6502C0 28.2169 1.09165 29.5252 2.54997 29.8835C2.79996 29.9418 3.06663 29.9835 3.33329 29.9835H6.67491C6.67491 30.2168 14.5831 70.6913 14.5831 70.6913C14.8831 72.2246 16.1248 73.3246 17.5664 73.3246H70.0491L78.5573 29.9835H82.2822V29.8835L83.3322 26.6502V19.9836Z" fill="#424242"/>
<path opacity="0.2" d="M24.9997 36.6583V63.333H21.3331L15.4081 36.6583H24.9997ZM24.9997 34.9917H15.4081C14.3415 34.9917 13.5498 35.9833 13.7832 37.0167L19.7081 63.6913C19.8747 64.458 20.5497 64.9996 21.3331 64.9996H24.9997C25.9163 64.9996 26.6663 64.2496 26.6663 63.333V36.6583C26.6663 35.7334 25.9163 34.9917 24.9997 34.9917Z" fill="#424242"/>
<path opacity="0.2" d="M64.5908 36.6583L58.6659 63.333H54.9993V36.6583H64.5908ZM64.5908 34.9917H54.9993C54.0826 34.9917 53.3326 35.7417 53.3326 36.6583V63.333C53.3326 64.2496 54.0826 64.9996 54.9993 64.9996H58.6659C59.4492 64.9996 60.1242 64.458 60.2909 63.6913L66.2158 37.0167C66.4491 35.975 65.6491 34.9917 64.5908 34.9917Z" fill="#424242"/>
<path opacity="0.2" d="M44.7994 36.6583L41.8328 63.333H38.1495L35.1829 36.6583H44.7994ZM44.7994 34.9917H35.1912C34.1995 34.9917 33.4246 35.8584 33.5329 36.8417L36.4995 63.5163C36.5912 64.358 37.3078 64.9996 38.1578 64.9996H41.8411C42.6911 64.9996 43.4078 64.358 43.4994 63.5163L46.4661 36.8417C46.5661 35.85 45.7994 34.9917 44.7994 34.9917Z" fill="#424242"/>
<path d="M87.1072 2.9921C85.1406 3.65042 83.6156 5.2254 83.0239 7.20871L63.4742 72.3745C63.2325 73.1912 63.3075 74.0662 63.6825 74.8245L66.7325 80.9244C67.2908 82.0327 66.4825 83.341 65.2408 83.341H6.66662C4.71665 83.341 3.15833 85.016 3.35 86.9993C3.51666 88.7326 5.06664 90.0076 6.80828 90.0076H73.2074C74.0157 90.0076 74.8324 89.766 75.4574 89.2493C76.6907 88.216 76.9907 86.5327 76.3157 85.1827L71.6074 75.7745C70.7241 74.0162 70.5491 71.9829 71.1158 70.0995L89.1072 10.1087C89.2322 9.67534 89.5322 9.33368 89.9239 9.12535L87.1572 2.98376L87.1072 2.9921Z" fill="url(#paint1_linear_33_2506)"/>
<path d="M99.5403 1.6255C98.7487 0.24218 97.0403 -0.324479 95.532 0.183847L87.1655 2.97548L89.9321 9.11706C90.0154 9.0754 90.0904 9.0254 90.1821 9.0004L97.7153 6.48376C99.682 5.82544 100.632 3.52547 99.5403 1.6255Z" fill="#F57C00"/>
<path opacity="0.2" d="M96.6404 1.66713C97.2571 1.66713 97.8154 1.96713 98.0904 2.45046C98.4487 3.07545 98.3237 3.62544 98.2154 3.90877C98.0321 4.37543 97.6571 4.74209 97.1821 4.90042L89.6489 7.41706C89.4322 7.49206 89.2739 7.57539 89.1405 7.65039C88.3405 8.07538 87.7655 8.77537 87.5072 9.62536L69.5241 69.6079C68.8325 71.9079 69.0491 74.3578 70.1158 76.5078L74.8241 85.916C75.174 86.6077 74.9907 87.4493 74.3824 87.9577C74.0991 88.1993 73.6741 88.3327 73.2074 88.3327H6.80828C5.87496 88.3327 5.08331 87.6743 5.00831 86.8327C4.95831 86.3493 5.11664 85.891 5.4333 85.541C5.74997 85.191 6.19163 84.9994 6.66662 84.9994H65.2408C66.4075 84.9994 67.4658 84.4077 68.0741 83.4161C68.6825 82.4244 68.7408 81.2161 68.2241 80.1744L65.1742 74.0745C64.9825 73.6912 64.9492 73.2579 65.0658 72.8495L84.6156 7.68372C85.0573 6.21707 86.1822 5.05875 87.6322 4.57543L87.6822 4.55876L96.0488 1.76713C96.2488 1.70047 96.4404 1.66713 96.6404 1.66713ZM96.6404 0.000488281C96.2654 0.000488281 95.8904 0.0588207 95.5238 0.183819L87.1572 2.97545L87.1072 2.99212C85.1406 3.65044 83.6156 5.22542 83.0239 7.20873L63.4742 72.3745C63.2325 73.1912 63.3075 74.0662 63.6825 74.8245L66.7325 80.9244C67.2908 82.0327 66.4825 83.3411 65.2408 83.3411H6.66662C4.71665 83.3411 3.15833 85.016 3.35 86.9994C3.51666 88.7327 5.06664 90.0076 6.80828 90.0076H73.2074C74.0157 90.0076 74.8324 89.766 75.4574 89.2493C76.6907 88.216 76.9907 86.5327 76.3157 85.1827L71.6074 75.7745C70.7241 74.0162 70.5491 71.9829 71.1158 70.0996L89.1072 10.1087C89.2322 9.67536 89.5322 9.3337 89.9239 9.12537C90.0072 9.0837 90.0822 9.0337 90.1739 9.0087L97.7071 6.49207C99.6654 5.83375 100.615 3.53378 99.5321 1.6338C98.9404 0.575481 97.8154 0.000488281 96.6404 0.000488281Z" fill="#424242"/>
<path d="M19.9997 99.9992C23.6816 99.9992 26.6663 97.0144 26.6663 93.3326C26.6663 89.6507 23.6816 86.666 19.9997 86.666C16.3179 86.666 13.3332 89.6507 13.3332 93.3326C13.3332 97.0144 16.3179 99.9992 19.9997 99.9992Z" fill="#37474F"/>
<path d="M63.3325 99.9992C67.0144 99.9992 69.9991 97.0144 69.9991 93.3326C69.9991 89.6507 67.0144 86.666 63.3325 86.666C59.6507 86.666 56.6659 89.6507 56.6659 93.3326C56.6659 97.0144 59.6507 99.9992 63.3325 99.9992Z" fill="#37474F"/>
<path d="M21.6664 96.6659H18.3331C17.4164 96.6659 16.6665 95.9159 16.6665 94.9992V86.666H23.333V94.9992C23.333 95.9159 22.583 96.6659 21.6664 96.6659Z" fill="#B0BEC5"/>
<path d="M19.9997 93.3326C20.9202 93.3326 21.6664 92.5864 21.6664 91.666C21.6664 90.7455 20.9202 89.9993 19.9997 89.9993C19.0793 89.9993 18.3331 90.7455 18.3331 91.666C18.3331 92.5864 19.0793 93.3326 19.9997 93.3326Z" fill="#FAFAFA" stroke="#757575" stroke-width="1.62777" stroke-miterlimit="10"/>
<path d="M64.9992 96.6659H61.6659C60.7492 96.6659 59.9992 95.9159 59.9992 94.9992V86.666H66.6658V94.9992C66.6658 95.9159 65.9158 96.6659 64.9992 96.6659Z" fill="#B0BEC5"/>
<path d="M63.3325 93.3326C64.253 93.3326 64.9991 92.5864 64.9991 91.666C64.9991 90.7455 64.253 89.9993 63.3325 89.9993C62.412 89.9993 61.6659 90.7455 61.6659 91.666C61.6659 92.5864 62.412 93.3326 63.3325 93.3326Z" fill="#FAFAFA" stroke="#757575" stroke-width="1.62777" stroke-miterlimit="10"/>
<defs>
<linearGradient id="paint0_linear_33_2506" x1="41.6653" y1="18.6345" x2="41.6653" y2="77.9762" gradientUnits="userSpaceOnUse">
<stop stop-color="#FFA726"/>
<stop offset="1" stop-color="#FB8C00"/>
</linearGradient>
<linearGradient id="paint1_linear_33_2506" x1="46.6311" y1="-12.8394" x2="46.6311" y2="104.207" gradientUnits="userSpaceOnUse">
<stop stop-color="#90A4AE"/>
<stop offset="1" stop-color="#607D8B"/>
</linearGradient>
</defs>
</svg>
