<svg width="101" height="100" viewBox="0 0 101 100" fill="none" xmlns="http://www.w3.org/2000/svg">
<path d="M0.5 0H100.5V100H0.5V0Z" fill="white"/>
<path d="M92.2188 8.28125H83.4688L58.7812 39.8438L43.7812 22.3438L0.5 85.1562V100H10.5L45.1875 49.5313L59.5625 66.0938L92.2188 24.2188V8.28125Z" fill="#52C18E"/>
<path d="M100.5 0H0.5V79.2188L5.1875 72.5H3.78125V51.7187H19.4062L21.75 48.4375H3.78125V27.5H24.5625V44.2188L27.8438 39.375V27.5H35.9688L38.3125 24.2188H27.8438V3.28125H48.625V23.125L52.375 27.5H64.0938L66.75 24.2188H52.0625V3.28125H72.8438V16.25L76.125 12.0312V3.28125H96.9062V24.0625H95.1875V25.3125L93.625 27.3438H96.9062V48.125H77.5312L73 54.0625V72.3438H52.2187V62.5L48.9375 58.5938V72.1875H33.625L31.2813 75.4688H48.9375V96.25H28V80.4688L24.7188 85.3125V96.7188H16.9062L14.5625 100H100.5V0ZM24.7188 24.2188H3.78125V3.28125H24.5625C24.7188 3.28125 24.7188 24.2188 24.7188 24.2188ZM73 96.7188H52.2187V75.7812H73V96.7188ZM97.2188 96.7188H76.2812V75.7812H97.0625V96.7188H97.2188ZM97.2188 72.5H76.2812V51.7187H97.0625V72.5H97.2188Z" fill="#D0D5D8"/>
</svg>
