<svg width="100" height="102" viewBox="0 0 100 102" fill="none" xmlns="http://www.w3.org/2000/svg">
<path d="M70.139 9.91569L70.1392 9.91583C74.5372 14.5866 77.6343 20.6887 79.2284 27.8306C79.7981 30.3829 81.8082 32.3308 84.2715 33.0104C87.1007 33.7909 89.6469 34.9888 91.7307 36.524C96.4704 40.0196 99 45.267 99 51.7985C99 58.0776 96.9631 62.9828 93.3164 66.3266C89.6584 69.6806 84.2614 71.5723 77.3438 71.5723H58.125C55.9159 71.5723 54.125 69.7814 54.125 67.5723V43.0398C54.125 40.7616 52.2782 38.9148 50 38.9148C47.7218 38.9148 45.875 40.7616 45.875 43.0398V67.5723C45.875 69.7814 44.0841 71.5723 41.875 71.5723H26.5625C18.9738 71.5723 12.5933 68.99 8.11467 64.6166C3.6378 60.245 1 54.0243 1 46.6277C1 39.1509 3.58403 32.9176 8.41339 28.5029C11.4877 25.7161 15.4464 23.6792 20.0628 22.5267C22.1325 22.01 23.8619 20.5655 24.7317 18.6144C26.5664 14.4984 29.1267 10.8778 32.2464 7.99227C37.2152 3.41535 43.3512 1 50 1C57.5654 1 64.7158 4.15405 70.139 9.91569Z" fill="url(#paint0_linear_43_17407)" stroke="#B57D7D" stroke-width="2"/>
<path d="M39.5735 80.8533C42.4196 84.1855 47.875 82.1729 47.875 77.7907V75.6973C47.875 74.5237 48.8264 73.5723 50 73.5723C51.1736 73.5723 52.125 74.5237 52.125 75.6973V77.7907C52.125 82.1729 57.5804 84.1855 60.4265 80.8533L60.6968 80.5369C61.6423 79.4298 63.3545 79.4336 64.2951 80.5447C65.0477 81.4336 65.0399 82.7385 64.2766 83.6183L53.0215 96.5923C51.4266 98.4307 48.5734 98.4307 46.9785 96.5923L35.7234 83.6183C34.9601 82.7385 34.9523 81.4336 35.7049 80.5447C36.6455 79.4336 38.3577 79.4298 39.3032 80.5369L39.5735 80.8533Z" fill="#399BDA" stroke="#B57D7D" stroke-width="2"/>
<defs>
<linearGradient id="paint0_linear_43_17407" x1="50" y1="0" x2="50" y2="72.5723" gradientUnits="userSpaceOnUse">
<stop stop-color="white"/>
<stop offset="1" stop-color="#399BDA"/>
</linearGradient>
</defs>
</svg>
