<svg width="66" height="51" viewBox="0 0 66 51" fill="none" xmlns="http://www.w3.org/2000/svg">
<path d="M32.2681 3.91243C17.902 -1.45454 8.63178 0.334452 2.12636 2.06923C1.15054 2.34029 0.5 3.20768 0.5 4.18349V9.7131C0.5 11.231 1.96372 12.2611 3.37323 11.7732C6.40909 10.7431 11.9387 9.7131 20.2331 11.1226C20.6668 11.1768 20.8294 11.7189 20.5042 12.0442C14.8661 17.7907 12.3724 25.3803 13.5108 34.0542C14.7577 43.4329 23.1063 50.5346 33.0813 50.5346C42.8937 50.5346 51.2423 43.4329 52.4892 34.0542C53.6276 25.3803 51.1339 17.7907 45.4958 12.0442C45.1706 11.7189 45.3332 11.1768 45.7669 11.1226C54.0071 9.7131 59.5909 10.7431 62.6268 11.7732C64.0363 12.2611 65.5 11.231 65.5 9.7131V4.18349C65.5 3.20768 64.8495 2.34029 63.8736 2.06923C57.3682 0.334452 48.098 -1.40033 33.7319 3.91243C33.2982 4.12928 32.756 4.12928 32.2681 3.91243ZM42.5684 32.6989C41.9178 37.578 37.2556 40.4512 32.9729 40.4512C28.8528 40.4512 24.1364 37.578 23.54 32.6989C22.51 25.0008 25.6543 19.146 32.8103 15.3511C32.9729 15.2427 33.1897 15.2427 33.3524 15.3511C40.4541 19.2002 43.5442 25.0008 42.5684 32.6989Z" fill="url(#paint0_linear_32_2398)"/>
<defs>
<linearGradient id="paint0_linear_32_2398" x1="33" y1="50.3592" x2="33" y2="1.34122" gradientUnits="userSpaceOnUse">
<stop offset="0.4852" stop-color="#504F4F"/>
<stop offset="1" stop-color="#757575"/>
</linearGradient>
</defs>
</svg>
