<svg width="87" height="87" viewBox="0 0 87 87" fill="none" xmlns="http://www.w3.org/2000/svg">
<mask id="mask0_186_100" style="mask-type:alpha" maskUnits="userSpaceOnUse" x="0" y="0" width="87" height="87">
<path d="M20.3207 49.5566H14.4283C13.6147 49.5566 12.9552 50.1605 12.9552 50.9054V75.1836C12.9552 75.9286 13.6147 76.5324 14.4283 76.5324H20.3207C21.1343 76.5324 21.7938 75.9286 21.7938 75.1836V50.9054C21.7938 50.1605 21.1343 49.5566 20.3207 49.5566Z" stroke="black" stroke-linecap="round" stroke-linejoin="round"/>
<path d="M61.5674 33.3711H55.675C54.8614 33.3711 54.2019 33.975 54.2019 34.7199V75.1836C54.2019 75.9285 54.8614 76.5324 55.675 76.5324H61.5674C62.381 76.5324 63.0405 75.9285 63.0405 75.1836V34.7199C63.0405 33.975 62.381 33.3711 61.5674 33.3711Z" stroke="black" stroke-linecap="round" stroke-linejoin="round"/>
<path d="M82.1908 14.4878H76.2984C75.4848 14.4878 74.8253 15.0917 74.8253 15.8366V75.1833C74.8253 75.9282 75.4848 76.5321 76.2984 76.5321H82.1908C83.0044 76.5321 83.6639 75.9282 83.6639 75.1833V15.8366C83.6639 15.0917 83.0044 14.4878 82.1908 14.4878Z" stroke="black" stroke-linecap="round" stroke-linejoin="round"/>
<path d="M40.944 1H35.0516C34.238 1 33.5785 1.60387 33.5785 2.34879V75.1834C33.5785 75.9283 34.238 76.5322 35.0516 76.5322H40.944C41.7575 76.5322 42.4171 75.9283 42.4171 75.1834V2.34879C42.4171 1.60387 41.7575 1 40.944 1Z" stroke="black" stroke-linecap="round" stroke-linejoin="round"/>
<path d="M83.6333 87.0002H6.23333C4.71276 87.0002 3.25446 86.4471 2.17925 85.4626C1.10405 84.4781 0.5 83.1429 0.5 81.7506V10.8821C0.5 10.186 0.802023 9.51834 1.33963 9.0261C1.87723 8.53386 2.60638 8.25732 3.36667 8.25732C4.12695 8.25732 4.8561 8.53386 5.39371 9.0261C5.93131 9.51834 6.23333 10.186 6.23333 10.8821V81.7506H83.6333C84.3936 81.7506 85.1228 82.0272 85.6604 82.5194C86.198 83.0117 86.5 83.6793 86.5 84.3754C86.5 85.0715 86.198 85.7392 85.6604 86.2314C85.1228 86.7236 84.3936 87.0002 83.6333 87.0002Z" fill="black"/>
</mask>
<g mask="url(#mask0_186_100)">
<rect x="-6.29358" y="-5.22021" width="102.472" height="97.9717" fill="#555657"/>
</g>
</svg>
