<svg width="352" height="62" viewBox="0 0 352 62" fill="none" xmlns="http://www.w3.org/2000/svg">
<g filter="url(#filter0_dd_75_6357)">
<rect x="3.5" y="3" width="345" height="54" rx="10" fill="white"/>
<rect x="45.5" y="3" width="261" height="54" rx="10" fill="white"/>
<rect width="24" height="24" transform="translate(60.5 18)" fill="white"/>
<path fill-rule="evenodd" clip-rule="evenodd" d="M83.54 30.2614C83.54 29.4459 83.4668 28.6618 83.3309 27.9091H72.5V32.3575H78.6891C78.4225 33.795 77.6123 35.013 76.3943 35.8284V38.7139H80.1109C82.2855 36.7118 83.54 33.7636 83.54 30.2614Z" fill="#4285F4"/>
<path fill-rule="evenodd" clip-rule="evenodd" d="M72.5 41.4998C75.605 41.4998 78.2081 40.4701 80.1109 38.7137L76.3943 35.8283C75.3645 36.5183 74.0472 36.926 72.5 36.926C69.5047 36.926 66.9695 34.903 66.0652 32.1848H62.2231V35.1644C64.1154 38.9228 68.0045 41.4998 72.5 41.4998Z" fill="#34A853"/>
<path fill-rule="evenodd" clip-rule="evenodd" d="M66.0652 32.1851C65.8352 31.4951 65.7045 30.758 65.7045 30.0001C65.7045 29.2421 65.8352 28.5051 66.0652 27.8151V24.8355H62.2232C61.4443 26.388 61 28.1444 61 30.0001C61 31.8557 61.4443 33.6121 62.2232 35.1646L66.0652 32.1851Z" fill="#FBBC05"/>
<path fill-rule="evenodd" clip-rule="evenodd" d="M72.5 23.0739C74.1884 23.0739 75.7043 23.6541 76.8961 24.7936L80.1945 21.4952C78.2029 19.6395 75.5997 18.5 72.5 18.5C68.0045 18.5 64.1154 21.077 62.2231 24.8355L66.0652 27.815C66.9695 25.0968 69.5047 23.0739 72.5 23.0739Z" fill="#EA4335"/>
<path d="M111.795 31.3711C111.652 32.888 111.092 34.0729 110.115 34.9258C109.139 35.7721 107.84 36.1953 106.219 36.1953C105.086 36.1953 104.087 35.9284 103.221 35.3945C102.361 34.8542 101.697 34.0892 101.229 33.0996C100.76 32.11 100.516 30.9609 100.496 29.6523V28.3242C100.496 26.9831 100.734 25.8014 101.209 24.7793C101.684 23.7572 102.365 22.9694 103.25 22.416C104.142 21.8626 105.171 21.5859 106.336 21.5859C107.905 21.5859 109.168 22.0124 110.125 22.8652C111.082 23.7181 111.639 24.9225 111.795 26.4785H109.334C109.217 25.4564 108.917 24.7207 108.436 24.2715C107.96 23.8158 107.26 23.5879 106.336 23.5879C105.262 23.5879 104.435 23.9818 103.855 24.7695C103.283 25.5508 102.99 26.6999 102.977 28.2168V29.4766C102.977 31.013 103.25 32.1849 103.797 32.9922C104.35 33.7995 105.158 34.2031 106.219 34.2031C107.189 34.2031 107.918 33.985 108.406 33.5488C108.895 33.1126 109.204 32.3867 109.334 31.3711H111.795ZM113.338 30.6191C113.338 29.584 113.543 28.653 113.953 27.8262C114.363 26.9928 114.939 26.3548 115.682 25.9121C116.424 25.4629 117.277 25.2383 118.24 25.2383C119.666 25.2383 120.822 25.6973 121.707 26.6152C122.599 27.5332 123.081 28.7507 123.152 30.2676L123.162 30.8242C123.162 31.8659 122.96 32.7969 122.557 33.6172C122.16 34.4375 121.587 35.0723 120.838 35.5215C120.096 35.9707 119.236 36.1953 118.26 36.1953C116.769 36.1953 115.574 35.7005 114.676 34.7109C113.784 33.7148 113.338 32.39 113.338 30.7363V30.6191ZM115.711 30.8242C115.711 31.9115 115.936 32.7643 116.385 33.3828C116.834 33.9948 117.459 34.3008 118.26 34.3008C119.061 34.3008 119.682 33.9883 120.125 33.3633C120.574 32.7383 120.799 31.8236 120.799 30.6191C120.799 29.5514 120.568 28.7051 120.105 28.0801C119.65 27.4551 119.028 27.1426 118.24 27.1426C117.465 27.1426 116.85 27.4518 116.395 28.0703C115.939 28.6823 115.711 29.6003 115.711 30.8242ZM127.371 25.4336L127.439 26.6543C128.221 25.7103 129.246 25.2383 130.516 25.2383C132.716 25.2383 133.836 26.498 133.875 29.0176V36H131.502V29.1543C131.502 28.4837 131.355 27.9889 131.062 27.6699C130.776 27.3444 130.304 27.1816 129.646 27.1816C128.689 27.1816 127.977 27.6146 127.508 28.4805V36H125.135V25.4336H127.371ZM139.275 22.8652V25.4336H141.141V27.1914H139.275V33.0898C139.275 33.4935 139.354 33.7865 139.51 33.9688C139.673 34.1445 139.959 34.2324 140.369 34.2324C140.643 34.2324 140.919 34.1999 141.199 34.1348V35.9707C140.659 36.1204 140.138 36.1953 139.637 36.1953C137.814 36.1953 136.902 35.1895 136.902 33.1777V27.1914H135.164V25.4336H136.902V22.8652H139.275ZM145.486 36H143.113V25.4336H145.486V36ZM142.967 22.6895C142.967 22.3249 143.081 22.0221 143.309 21.7812C143.543 21.5404 143.875 21.4199 144.305 21.4199C144.734 21.4199 145.066 21.5404 145.301 21.7812C145.535 22.0221 145.652 22.3249 145.652 22.6895C145.652 23.0475 145.535 23.347 145.301 23.5879C145.066 23.8223 144.734 23.9395 144.305 23.9395C143.875 23.9395 143.543 23.8223 143.309 23.5879C143.081 23.347 142.967 23.0475 142.967 22.6895ZM150.281 25.4336L150.35 26.6543C151.131 25.7103 152.156 25.2383 153.426 25.2383C155.626 25.2383 156.746 26.498 156.785 29.0176V36H154.412V29.1543C154.412 28.4837 154.266 27.9889 153.973 27.6699C153.686 27.3444 153.214 27.1816 152.557 27.1816C151.6 27.1816 150.887 27.6146 150.418 28.4805V36H148.045V25.4336H150.281ZM165.613 34.9648C164.917 35.7852 163.927 36.1953 162.645 36.1953C161.499 36.1953 160.63 35.86 160.037 35.1895C159.451 34.5189 159.158 33.5488 159.158 32.2793V25.4336H161.531V32.25C161.531 33.5911 162.088 34.2617 163.201 34.2617C164.354 34.2617 165.132 33.8483 165.535 33.0215V25.4336H167.908V36H165.672L165.613 34.9648ZM174.979 36.1953C173.475 36.1953 172.254 35.7233 171.316 34.7793C170.385 33.8288 169.92 32.5658 169.92 30.9902V30.6973C169.92 29.6426 170.122 28.7018 170.525 27.875C170.936 27.0417 171.508 26.3939 172.244 25.9316C172.98 25.4694 173.8 25.2383 174.705 25.2383C176.144 25.2383 177.254 25.6973 178.035 26.6152C178.823 27.5332 179.217 28.832 179.217 30.5117V31.4688H172.312C172.384 32.3411 172.674 33.0312 173.182 33.5391C173.696 34.0469 174.34 34.3008 175.115 34.3008C176.202 34.3008 177.088 33.8613 177.771 32.9824L179.051 34.2031C178.628 34.8346 178.061 35.3262 177.352 35.6777C176.648 36.0228 175.857 36.1953 174.979 36.1953ZM174.695 27.1426C174.044 27.1426 173.517 27.3704 173.113 27.8262C172.716 28.2819 172.462 28.9167 172.352 29.7305H176.873V29.5547C176.821 28.7604 176.609 28.1615 176.238 27.7578C175.867 27.3477 175.353 27.1426 174.695 27.1426ZM195.33 32.7285L197.01 25.4336H199.324L196.443 36H194.49L192.225 28.7441L189.998 36H188.045L185.154 25.4336H187.469L189.178 32.6504L191.346 25.4336H193.133L195.33 32.7285ZM203.436 36H201.062V25.4336H203.436V36ZM200.916 22.6895C200.916 22.3249 201.03 22.0221 201.258 21.7812C201.492 21.5404 201.824 21.4199 202.254 21.4199C202.684 21.4199 203.016 21.5404 203.25 21.7812C203.484 22.0221 203.602 22.3249 203.602 22.6895C203.602 23.0475 203.484 23.347 203.25 23.5879C203.016 23.8223 202.684 23.9395 202.254 23.9395C201.824 23.9395 201.492 23.8223 201.258 23.5879C201.03 23.347 200.916 23.0475 200.916 22.6895ZM209.002 22.8652V25.4336H210.867V27.1914H209.002V33.0898C209.002 33.4935 209.08 33.7865 209.236 33.9688C209.399 34.1445 209.686 34.2324 210.096 34.2324C210.369 34.2324 210.646 34.1999 210.926 34.1348V35.9707C210.385 36.1204 209.865 36.1953 209.363 36.1953C207.54 36.1953 206.629 35.1895 206.629 33.1777V27.1914H204.891V25.4336H206.629V22.8652H209.002ZM215.027 26.5859C215.802 25.6875 216.782 25.2383 217.967 25.2383C220.219 25.2383 221.362 26.5241 221.395 29.0957V36H219.021V29.1836C219.021 28.4544 218.862 27.9401 218.543 27.6406C218.23 27.3346 217.768 27.1816 217.156 27.1816C216.206 27.1816 215.496 27.6048 215.027 28.4512V36H212.654V21H215.027V26.5859ZM239.91 34.1543C239.396 34.8249 238.683 35.3327 237.771 35.6777C236.86 36.0228 235.825 36.1953 234.666 36.1953C233.475 36.1953 232.42 35.9251 231.502 35.3848C230.584 34.8444 229.874 34.0729 229.373 33.0703C228.878 32.0612 228.621 30.8861 228.602 29.5449V28.4316C228.602 26.2832 229.116 24.6068 230.145 23.4023C231.173 22.1914 232.609 21.5859 234.451 21.5859C236.033 21.5859 237.29 21.9766 238.221 22.7578C239.152 23.5391 239.712 24.6654 239.9 26.1367H237.479C237.205 24.4245 236.212 23.5684 234.5 23.5684C233.393 23.5684 232.55 23.9688 231.971 24.7695C231.398 25.5638 231.102 26.7324 231.082 28.2754V29.3691C231.082 30.9056 231.404 32.1003 232.049 32.9531C232.7 33.7995 233.602 34.2227 234.754 34.2227C236.017 34.2227 236.915 33.9362 237.449 33.3633V30.5801H234.52V28.7051H239.91V34.1543ZM241.951 30.6191C241.951 29.584 242.156 28.653 242.566 27.8262C242.977 26.9928 243.553 26.3548 244.295 25.9121C245.037 25.4629 245.89 25.2383 246.854 25.2383C248.279 25.2383 249.435 25.6973 250.32 26.6152C251.212 27.5332 251.694 28.7507 251.766 30.2676L251.775 30.8242C251.775 31.8659 251.574 32.7969 251.17 33.6172C250.773 34.4375 250.2 35.0723 249.451 35.5215C248.709 35.9707 247.85 36.1953 246.873 36.1953C245.382 36.1953 244.188 35.7005 243.289 34.7109C242.397 33.7148 241.951 32.39 241.951 30.7363V30.6191ZM244.324 30.8242C244.324 31.9115 244.549 32.7643 244.998 33.3828C245.447 33.9948 246.072 34.3008 246.873 34.3008C247.674 34.3008 248.296 33.9883 248.738 33.3633C249.188 32.7383 249.412 31.8236 249.412 30.6191C249.412 29.5514 249.181 28.7051 248.719 28.0801C248.263 27.4551 247.641 27.1426 246.854 27.1426C246.079 27.1426 245.464 27.4518 245.008 28.0703C244.552 28.6823 244.324 29.6003 244.324 30.8242ZM253.338 30.6191C253.338 29.584 253.543 28.653 253.953 27.8262C254.363 26.9928 254.939 26.3548 255.682 25.9121C256.424 25.4629 257.277 25.2383 258.24 25.2383C259.666 25.2383 260.822 25.6973 261.707 26.6152C262.599 27.5332 263.081 28.7507 263.152 30.2676L263.162 30.8242C263.162 31.8659 262.96 32.7969 262.557 33.6172C262.16 34.4375 261.587 35.0723 260.838 35.5215C260.096 35.9707 259.236 36.1953 258.26 36.1953C256.769 36.1953 255.574 35.7005 254.676 34.7109C253.784 33.7148 253.338 32.39 253.338 30.7363V30.6191ZM255.711 30.8242C255.711 31.9115 255.936 32.7643 256.385 33.3828C256.834 33.9948 257.459 34.3008 258.26 34.3008C259.061 34.3008 259.682 33.9883 260.125 33.3633C260.574 32.7383 260.799 31.8236 260.799 30.6191C260.799 29.5514 260.568 28.7051 260.105 28.0801C259.65 27.4551 259.028 27.1426 258.24 27.1426C257.465 27.1426 256.85 27.4518 256.395 28.0703C255.939 28.6823 255.711 29.6003 255.711 30.8242ZM264.754 30.6387C264.754 28.998 265.138 27.6895 265.906 26.7129C266.681 25.7298 267.706 25.2383 268.982 25.2383C270.187 25.2383 271.134 25.6582 271.824 26.498L271.932 25.4336H274.07V35.6777C274.07 37.0645 273.637 38.1582 272.771 38.959C271.912 39.7598 270.75 40.1602 269.285 40.1602C268.51 40.1602 267.752 39.9974 267.01 39.6719C266.274 39.3529 265.714 38.9329 265.33 38.4121L266.453 36.9863C267.182 37.8522 268.081 38.2852 269.148 38.2852C269.936 38.2852 270.558 38.0703 271.014 37.6406C271.469 37.2174 271.697 36.5924 271.697 35.7656V35.0527C271.014 35.8145 270.102 36.1953 268.963 36.1953C267.726 36.1953 266.714 35.7038 265.926 34.7207C265.145 33.7376 264.754 32.377 264.754 30.6387ZM267.117 30.8438C267.117 31.9049 267.332 32.7415 267.762 33.3535C268.198 33.959 268.8 34.2617 269.568 34.2617C270.525 34.2617 271.235 33.8516 271.697 33.0312V28.3828C271.248 27.582 270.545 27.1816 269.588 27.1816C268.807 27.1816 268.198 27.4909 267.762 28.1094C267.332 28.7279 267.117 29.6393 267.117 30.8438ZM279.041 36H276.668V21H279.041V36ZM286.287 36.1953C284.783 36.1953 283.562 35.7233 282.625 34.7793C281.694 33.8288 281.229 32.5658 281.229 30.9902V30.6973C281.229 29.6426 281.43 28.7018 281.834 27.875C282.244 27.0417 282.817 26.3939 283.553 25.9316C284.288 25.4694 285.109 25.2383 286.014 25.2383C287.452 25.2383 288.562 25.6973 289.344 26.6152C290.132 27.5332 290.525 28.832 290.525 30.5117V31.4688H283.621C283.693 32.3411 283.982 33.0312 284.49 33.5391C285.005 34.0469 285.649 34.3008 286.424 34.3008C287.511 34.3008 288.396 33.8613 289.08 32.9824L290.359 34.2031C289.936 34.8346 289.37 35.3262 288.66 35.6777C287.957 36.0228 287.166 36.1953 286.287 36.1953ZM286.004 27.1426C285.353 27.1426 284.826 27.3704 284.422 27.8262C284.025 28.2819 283.771 28.9167 283.66 29.7305H288.182V29.5547C288.13 28.7604 287.918 28.1615 287.547 27.7578C287.176 27.3477 286.661 27.1426 286.004 27.1426Z" fill="black" fill-opacity="0.54"/>
</g>
<defs>
<filter id="filter0_dd_75_6357" x="0.5" y="0" width="351" height="62" filterUnits="userSpaceOnUse" color-interpolation-filters="sRGB">
<feFlood flood-opacity="0" result="BackgroundImageFix"/>
<feColorMatrix in="SourceAlpha" type="matrix" values="0 0 0 0 0 0 0 0 0 0 0 0 0 0 0 0 0 0 127 0" result="hardAlpha"/>
<feOffset dy="2"/>
<feGaussianBlur stdDeviation="1.5"/>
<feColorMatrix type="matrix" values="0 0 0 0 0 0 0 0 0 0 0 0 0 0 0 0 0 0 0.168 0"/>
<feBlend mode="normal" in2="BackgroundImageFix" result="effect1_dropShadow_75_6357"/>
<feColorMatrix in="SourceAlpha" type="matrix" values="0 0 0 0 0 0 0 0 0 0 0 0 0 0 0 0 0 0 127 0" result="hardAlpha"/>
<feOffset/>
<feGaussianBlur stdDeviation="1.5"/>
<feColorMatrix type="matrix" values="0 0 0 0 0 0 0 0 0 0 0 0 0 0 0 0 0 0 0.084 0"/>
<feBlend mode="normal" in2="effect1_dropShadow_75_6357" result="effect2_dropShadow_75_6357"/>
<feBlend mode="normal" in="SourceGraphic" in2="effect2_dropShadow_75_6357" result="shape"/>
</filter>
</defs>
</svg>
