<svg width="65" height="65" viewBox="0 0 65 65" fill="none" xmlns="http://www.w3.org/2000/svg">
<path d="M32.4892 64.7932L64.973 17.3377L65 17.3269V17.3107L49.8877 0.0202637H15.2798L0.140503 17.2783V17.2945L0.156718 17.3323L32.273 64.5987L32.4459 64.8365L32.4838 64.7878L32.3649 64.3392L32.4892 64.7932Z" fill="#81D4FA"/>
<path d="M32.4568 64.8419L0.199982 17.3323L15.2798 0.0581055H49.8877L64.9405 17.3323L32.4568 64.8419Z" fill="url(#paint0_linear_33_2444)"/>
<path d="M32.4513 64.8203L45.2989 17.3162L19.4092 17.3432L32.4513 64.8203Z" fill="url(#paint1_linear_33_2444)"/>
<path d="M45.299 17.3161H45.5097L45.3584 17.1107L45.299 17.3161Z" fill="#81D4FA"/>
<path d="M65 17.327L45.3151 17.3162L32.4568 64.8311L65 17.3324V17.327Z" fill="url(#paint2_linear_33_2444)"/>
<path d="M19.5227 17.635L19.4308 17.3053L0.232411 17.2999L0.199982 17.3324L32.4514 64.8311L19.5227 17.635Z" fill="url(#paint3_linear_33_2444)"/>
<path d="M19.5984 17.3161L15.2744 0.0743408L0 17.3432L19.5984 17.3161Z" fill="url(#paint4_linear_33_2444)"/>
<path d="M45.4016 17.3161L49.7256 0.0743408L65 17.3432L45.4016 17.3161Z" fill="url(#paint5_linear_33_2444)"/>
<path d="M19.4579 17.3161L32.4297 0.0418701L45.299 17.3161H19.4579Z" fill="url(#paint6_linear_33_2444)"/>
<path d="M32.5703 0.0418835L19.5984 17.3431L15.1339 0.0202637L32.5703 0.0418835Z" fill="url(#paint7_linear_33_2444)"/>
<path d="M32.4297 0.0418835L45.4016 17.3431L49.8661 0.0202637L32.4297 0.0418835Z" fill="url(#paint8_linear_33_2444)"/>
<path opacity="0.2" d="M49.1472 1.64175L62.9461 17.4242L32.4513 61.9665L2.17277 17.4188L16.0149 1.64175H49.1472ZM49.8877 0.0202637H15.2798L0.140503 17.2783V17.2945L0.156718 17.3323L32.4459 64.8419L64.973 17.3323L65 17.3215V17.3053L49.8877 0.0202637Z" fill="#424242"/>
<defs>
<linearGradient id="paint0_linear_33_2444" x1="0.200738" y1="32.45" x2="64.9405" y2="32.45" gradientUnits="userSpaceOnUse">
<stop offset="0.00075733" stop-color="#81D4FA"/>
<stop offset="1" stop-color="#29B6F6"/>
</linearGradient>
<linearGradient id="paint1_linear_33_2444" x1="32.3535" y1="64.8203" x2="32.3535" y2="17.3178" gradientUnits="userSpaceOnUse">
<stop stop-color="#81D4FA"/>
<stop offset="0.2208" stop-color="#7DD3FA"/>
<stop offset="0.4315" stop-color="#72CFF9"/>
<stop offset="0.638" stop-color="#5EC8F8"/>
<stop offset="0.8408" stop-color="#44BFF7"/>
<stop offset="1" stop-color="#29B6F6"/>
</linearGradient>
<linearGradient id="paint2_linear_33_2444" x1="48.7295" y1="64.8311" x2="48.7295" y2="17.3162" gradientUnits="userSpaceOnUse">
<stop stop-color="#039BE5"/>
<stop offset="0.3689" stop-color="#0398E2"/>
<stop offset="0.6377" stop-color="#0390D9"/>
<stop offset="0.874" stop-color="#0282C9"/>
<stop offset="1" stop-color="#0277BD"/>
</linearGradient>
<linearGradient id="paint3_linear_33_2444" x1="16.3251" y1="64.8311" x2="16.3251" y2="17.2988" gradientUnits="userSpaceOnUse">
<stop stop-color="#29B6F6"/>
<stop offset="0.3305" stop-color="#25B3F4"/>
<stop offset="0.6457" stop-color="#1AABEF"/>
<stop offset="0.9539" stop-color="#079EE7"/>
<stop offset="1" stop-color="#039BE5"/>
</linearGradient>
<linearGradient id="paint4_linear_33_2444" x1="13.9286" y1="0.807631" x2="9.75216" y2="17.514" gradientUnits="userSpaceOnUse">
<stop offset="0.0052615" stop-color="#B3E5FC"/>
<stop offset="1" stop-color="#4FC3F7"/>
</linearGradient>
<linearGradient id="paint5_linear_33_2444" x1="55.2008" y1="1.6741" x2="55.2008" y2="17.8712" gradientUnits="userSpaceOnUse">
<stop offset="0.0090681" stop-color="#81D4FA"/>
<stop offset="1" stop-color="#29B6F6"/>
</linearGradient>
<linearGradient id="paint6_linear_33_2444" x1="32.3779" y1="1.50007" x2="32.3779" y2="17.1621" gradientUnits="userSpaceOnUse">
<stop stop-color="#E1F5FE"/>
<stop offset="0.275" stop-color="#D3F0FD"/>
<stop offset="1" stop-color="#B3E5FC"/>
</linearGradient>
<linearGradient id="paint7_linear_33_2444" x1="23.851" y1="0.281918" x2="23.851" y2="18.0404" gradientUnits="userSpaceOnUse">
<stop offset="0.0090681" stop-color="#81D4FA"/>
<stop offset="1" stop-color="#29B6F6"/>
</linearGradient>
<linearGradient id="paint8_linear_33_2444" x1="32.4276" y1="8.68062" x2="49.8661" y2="8.68062" gradientUnits="userSpaceOnUse">
<stop offset="0.0115" stop-color="#4FC3F7"/>
<stop offset="1" stop-color="#29B6F6"/>
</linearGradient>
</defs>
</svg>
