<svg width="82" height="83" viewBox="0 0 82 83" fill="none" xmlns="http://www.w3.org/2000/svg">
<path d="M45.1827 10L54.2814 29.0474L74.5752 10.7352L64.2014 36.9512L75.5 33.9011L64.7873 49.1287L74.5695 52.5004L64.5748 57.2508L74.2995 73.9259L55.8093 62.4894L51.8459 74.8621L45.9754 61.6335L29.3176 74.1441L34.3839 59.8701L11.4248 64.4883L28.6111 51.6963L10.5 38.6572L31.1557 40.4436L12.0566 11.1546L42.73 31.2531L45.1827 10Z" fill="#FFA000" stroke="#F44336" stroke-width="5.28494" stroke-miterlimit="10"/>
<path d="M47.6872 25.084L53.167 39.2776L64.0118 27.037L55.861 44.1199L65.7465 41.1502L56.5847 50.2545L64.2588 52.7762L56.9064 53.8618L62.7596 62.1563L53.2474 56.079L51.0589 63.1557L47.6872 55.0623L39.2721 61.4727L42.73 53.6206L29.5186 56.5041L39.2548 50.5992L26.5547 44.4932L40.6219 45.8029L29.0706 27.6803L46.8083 39.6739L47.6872 25.084Z" fill="url(#paint0_radial_32_2395)" stroke="#FFEB3B" stroke-width="3.52329" stroke-miterlimit="10"/>
<defs>
<radialGradient id="paint0_radial_32_2395" cx="0" cy="0" r="1" gradientUnits="userSpaceOnUse" gradientTransform="translate(50.5347 48.6148) scale(15.1444 15.1444)">
<stop stop-color="#FFFDE7"/>
<stop offset="1" stop-color="#FFF176"/>
</radialGradient>
</defs>
</svg>
