<svg width="352" height="62" viewBox="0 0 352 62" fill="none" xmlns="http://www.w3.org/2000/svg">
<g filter="url(#filter0_dd_75_6429)">
<rect x="3.5" y="3" width="345" height="54" rx="10" fill="#0072B1"/>
<rect x="49" y="3" width="254" height="54" rx="10" fill="#0072B1"/>
<path d="M84.8205 19.5H67.2944C66.3367 19.5 65.5 20.1891 65.5 21.1355V38.7005C65.5 39.652 66.3367 40.5 67.2944 40.5H84.8153C85.7781 40.5 86.5 39.6464 86.5 38.7005V21.1355C86.5056 20.1891 85.7781 19.5 84.8205 19.5ZM72.0095 37.0045H69.0011V27.6506H72.0095V37.0045ZM70.6094 26.2284H70.5878C69.625 26.2284 69.0016 25.5117 69.0016 24.6145C69.0016 23.7009 69.6414 23.0011 70.6258 23.0011C71.6102 23.0011 72.2125 23.6958 72.2341 24.6145C72.2336 25.5117 71.6102 26.2284 70.6094 26.2284ZM83.0045 37.0045H79.9961V31.89C79.9961 30.6647 79.5583 29.8275 78.4698 29.8275C77.6383 29.8275 77.1461 30.39 76.9272 30.938C76.8452 31.1348 76.8231 31.403 76.8231 31.6767V37.0045H73.8147V27.6506H76.8231V28.9523C77.2609 28.3289 77.9448 27.4317 79.5363 27.4317C81.5111 27.4317 83.005 28.7334 83.005 31.5398L83.0045 37.0045Z" fill="white"/>
<path d="M111.926 32.3379C111.926 32.0449 111.88 31.7845 111.789 31.5566C111.704 31.3288 111.551 31.1204 111.33 30.9316C111.109 30.7428 110.796 30.5605 110.393 30.3848C109.995 30.2025 109.488 30.0169 108.869 29.8281C108.192 29.6198 107.567 29.3887 106.994 29.1348C106.428 28.8743 105.933 28.5749 105.51 28.2363C105.087 27.8913 104.758 27.4974 104.523 27.0547C104.289 26.6055 104.172 26.0879 104.172 25.502C104.172 24.9225 104.292 24.3952 104.533 23.9199C104.781 23.4447 105.129 23.0345 105.578 22.6895C106.034 22.3379 106.571 22.0677 107.189 21.8789C107.808 21.6836 108.492 21.5859 109.24 21.5859C110.295 21.5859 111.203 21.7812 111.965 22.1719C112.733 22.5625 113.322 23.0866 113.732 23.7441C114.149 24.4017 114.357 25.1276 114.357 25.9219H111.926C111.926 25.4531 111.825 25.0397 111.623 24.6816C111.428 24.3171 111.128 24.0306 110.725 23.8223C110.327 23.6139 109.823 23.5098 109.211 23.5098C108.632 23.5098 108.15 23.5977 107.766 23.7734C107.382 23.9492 107.095 24.1868 106.906 24.4863C106.717 24.7858 106.623 25.1243 106.623 25.502C106.623 25.7689 106.685 26.013 106.809 26.2344C106.932 26.4492 107.121 26.651 107.375 26.8398C107.629 27.0221 107.948 27.1947 108.332 27.3574C108.716 27.5202 109.169 27.6764 109.689 27.8262C110.477 28.0605 111.164 28.321 111.75 28.6074C112.336 28.8874 112.824 29.2064 113.215 29.5645C113.605 29.9225 113.898 30.3294 114.094 30.7852C114.289 31.2344 114.387 31.7454 114.387 32.3184C114.387 32.9173 114.266 33.4577 114.025 33.9395C113.785 34.4147 113.439 34.8216 112.99 35.1602C112.548 35.4922 112.014 35.7493 111.389 35.9316C110.77 36.1074 110.08 36.1953 109.318 36.1953C108.635 36.1953 107.961 36.1042 107.297 35.9219C106.639 35.7396 106.04 35.4629 105.5 35.0918C104.96 34.7142 104.53 34.2454 104.211 33.6855C103.892 33.1191 103.732 32.4583 103.732 31.7031H106.184C106.184 32.1654 106.262 32.5592 106.418 32.8848C106.581 33.2103 106.805 33.4772 107.092 33.6855C107.378 33.8874 107.71 34.0371 108.088 34.1348C108.472 34.2324 108.882 34.2812 109.318 34.2812C109.891 34.2812 110.37 34.1999 110.754 34.0371C111.145 33.8743 111.438 33.6465 111.633 33.3535C111.828 33.0605 111.926 32.722 111.926 32.3379ZM118.84 25.4336V36H116.477V25.4336H118.84ZM116.32 22.6602C116.32 22.3021 116.438 22.0059 116.672 21.7715C116.913 21.5306 117.245 21.4102 117.668 21.4102C118.085 21.4102 118.413 21.5306 118.654 21.7715C118.895 22.0059 119.016 22.3021 119.016 22.6602C119.016 23.0117 118.895 23.3047 118.654 23.5391C118.413 23.7734 118.085 23.8906 117.668 23.8906C117.245 23.8906 116.913 23.7734 116.672 23.5391C116.438 23.3047 116.32 23.0117 116.32 22.6602ZM128.186 25.4336H130.324V35.707C130.324 36.6576 130.122 37.4648 129.719 38.1289C129.315 38.793 128.752 39.2975 128.029 39.6426C127.307 39.9941 126.47 40.1699 125.52 40.1699C125.116 40.1699 124.667 40.1113 124.172 39.9941C123.684 39.877 123.208 39.6882 122.746 39.4277C122.29 39.1738 121.91 38.8385 121.604 38.4219L122.707 37.0352C123.085 37.4844 123.501 37.8132 123.957 38.0215C124.413 38.2298 124.891 38.334 125.393 38.334C125.933 38.334 126.392 38.2331 126.77 38.0312C127.154 37.8359 127.45 37.5462 127.658 37.1621C127.867 36.778 127.971 36.3092 127.971 35.7559V27.8262L128.186 25.4336ZM121.008 30.834V30.6289C121.008 29.8281 121.105 29.099 121.301 28.4414C121.496 27.7773 121.776 27.2077 122.141 26.7324C122.505 26.2507 122.948 25.8828 123.469 25.6289C123.99 25.3685 124.579 25.2383 125.236 25.2383C125.92 25.2383 126.503 25.362 126.984 25.6094C127.473 25.8568 127.88 26.2116 128.205 26.6738C128.531 27.1296 128.785 27.6764 128.967 28.3145C129.156 28.946 129.296 29.6491 129.387 30.4238V31.0781C129.302 31.8333 129.159 32.5234 128.957 33.1484C128.755 33.7734 128.488 34.3138 128.156 34.7695C127.824 35.2253 127.414 35.5768 126.926 35.8242C126.444 36.0716 125.874 36.1953 125.217 36.1953C124.572 36.1953 123.99 36.0618 123.469 35.7949C122.954 35.528 122.512 35.1536 122.141 34.6719C121.776 34.1901 121.496 33.6237 121.301 32.9727C121.105 32.3151 121.008 31.6022 121.008 30.834ZM123.361 30.6289V30.834C123.361 31.3158 123.407 31.765 123.498 32.1816C123.596 32.5983 123.742 32.9661 123.938 33.2852C124.139 33.5977 124.393 33.8451 124.699 34.0273C125.012 34.2031 125.38 34.291 125.803 34.291C126.356 34.291 126.809 34.1738 127.16 33.9395C127.518 33.7051 127.792 33.3893 127.98 32.9922C128.176 32.5885 128.312 32.1393 128.391 31.6445V29.877C128.352 29.4928 128.27 29.1348 128.146 28.8027C128.029 28.4707 127.87 28.181 127.668 27.9336C127.466 27.6797 127.212 27.4844 126.906 27.3477C126.6 27.2044 126.239 27.1328 125.822 27.1328C125.399 27.1328 125.031 27.224 124.719 27.4062C124.406 27.5885 124.149 27.8392 123.947 28.1582C123.752 28.4772 123.605 28.8483 123.508 29.2715C123.41 29.6947 123.361 30.1471 123.361 30.6289ZM135.1 27.6895V36H132.746V25.4336H134.963L135.1 27.6895ZM134.68 30.3262L133.918 30.3164C133.924 29.5677 134.029 28.8809 134.23 28.2559C134.439 27.6309 134.725 27.0938 135.09 26.6445C135.461 26.1953 135.904 25.8503 136.418 25.6094C136.932 25.362 137.505 25.2383 138.137 25.2383C138.645 25.2383 139.104 25.3099 139.514 25.4531C139.93 25.5898 140.285 25.8145 140.578 26.127C140.878 26.4395 141.105 26.8464 141.262 27.3477C141.418 27.8424 141.496 28.4512 141.496 29.1738V36H139.133V29.1641C139.133 28.6562 139.058 28.2559 138.908 27.9629C138.765 27.6634 138.553 27.4518 138.273 27.3281C138 27.1979 137.658 27.1328 137.248 27.1328C136.844 27.1328 136.483 27.2174 136.164 27.3867C135.845 27.556 135.575 27.7871 135.354 28.0801C135.139 28.373 134.973 28.7116 134.855 29.0957C134.738 29.4798 134.68 29.89 134.68 30.3262ZM151.398 25.4336V36H149.035V25.4336H151.398ZM148.879 22.6602C148.879 22.3021 148.996 22.0059 149.23 21.7715C149.471 21.5306 149.803 21.4102 150.227 21.4102C150.643 21.4102 150.972 21.5306 151.213 21.7715C151.454 22.0059 151.574 22.3021 151.574 22.6602C151.574 23.0117 151.454 23.3047 151.213 23.5391C150.972 23.7734 150.643 23.8906 150.227 23.8906C149.803 23.8906 149.471 23.7734 149.23 23.5391C148.996 23.3047 148.879 23.0117 148.879 22.6602ZM156.311 27.6895V36H153.957V25.4336H156.174L156.311 27.6895ZM155.891 30.3262L155.129 30.3164C155.135 29.5677 155.24 28.8809 155.441 28.2559C155.65 27.6309 155.936 27.0938 156.301 26.6445C156.672 26.1953 157.115 25.8503 157.629 25.6094C158.143 25.362 158.716 25.2383 159.348 25.2383C159.855 25.2383 160.314 25.3099 160.725 25.4531C161.141 25.5898 161.496 25.8145 161.789 26.127C162.089 26.4395 162.316 26.8464 162.473 27.3477C162.629 27.8424 162.707 28.4512 162.707 29.1738V36H160.344V29.1641C160.344 28.6562 160.269 28.2559 160.119 27.9629C159.976 27.6634 159.764 27.4518 159.484 27.3281C159.211 27.1979 158.869 27.1328 158.459 27.1328C158.055 27.1328 157.694 27.2174 157.375 27.3867C157.056 27.556 156.786 27.7871 156.564 28.0801C156.35 28.373 156.184 28.7116 156.066 29.0957C155.949 29.4798 155.891 29.89 155.891 30.3262ZM172.961 33.6562L175.402 25.4336H176.906L176.496 27.8945L174.035 36H172.688L172.961 33.6562ZM171.525 25.4336L173.43 33.6953L173.586 36H172.082L169.221 25.4336H171.525ZM179.191 33.5977L181.037 25.4336H183.332L180.48 36H178.977L179.191 33.5977ZM177.16 25.4336L179.572 33.5586L179.875 36H178.527L176.037 27.8848L175.627 25.4336H177.16ZM187.453 25.4336V36H185.09V25.4336H187.453ZM184.934 22.6602C184.934 22.3021 185.051 22.0059 185.285 21.7715C185.526 21.5306 185.858 21.4102 186.281 21.4102C186.698 21.4102 187.027 21.5306 187.268 21.7715C187.508 22.0059 187.629 22.3021 187.629 22.6602C187.629 23.0117 187.508 23.3047 187.268 23.5391C187.027 23.7734 186.698 23.8906 186.281 23.8906C185.858 23.8906 185.526 23.7734 185.285 23.5391C185.051 23.3047 184.934 23.0117 184.934 22.6602ZM194.875 25.4336V27.1523H188.918V25.4336H194.875ZM190.637 22.8457H192.99V33.0801C192.99 33.4056 193.036 33.6562 193.127 33.832C193.225 34.0013 193.358 34.1152 193.527 34.1738C193.697 34.2324 193.895 34.2617 194.123 34.2617C194.286 34.2617 194.442 34.252 194.592 34.2324C194.742 34.2129 194.862 34.1934 194.953 34.1738L194.963 35.9707C194.768 36.0293 194.54 36.0814 194.279 36.127C194.025 36.1725 193.732 36.1953 193.4 36.1953C192.86 36.1953 192.382 36.1009 191.965 35.9121C191.548 35.7168 191.223 35.401 190.988 34.9648C190.754 34.5286 190.637 33.9492 190.637 33.2266V22.8457ZM199.016 21V36H196.672V21H199.016ZM198.605 30.3262L197.844 30.3164C197.85 29.5872 197.951 28.9134 198.146 28.2949C198.348 27.6764 198.628 27.1393 198.986 26.6836C199.351 26.2214 199.787 25.8665 200.295 25.6191C200.803 25.3652 201.366 25.2383 201.984 25.2383C202.505 25.2383 202.974 25.3099 203.391 25.4531C203.814 25.5964 204.178 25.8275 204.484 26.1465C204.79 26.459 205.021 26.8691 205.178 27.377C205.34 27.8783 205.422 28.4902 205.422 29.2129V36H203.059V29.1934C203.059 28.6855 202.984 28.2819 202.834 27.9824C202.691 27.6829 202.479 27.4681 202.199 27.3379C201.919 27.2012 201.577 27.1328 201.174 27.1328C200.751 27.1328 200.376 27.2174 200.051 27.3867C199.732 27.556 199.465 27.7871 199.25 28.0801C199.035 28.373 198.872 28.7116 198.762 29.0957C198.658 29.4798 198.605 29.89 198.605 30.3262ZM221.926 34.0566V36H214.787V34.0566H221.926ZM215.471 21.7812V36H213.02V21.7812H215.471ZM226.105 25.4336V36H223.742V25.4336H226.105ZM223.586 22.6602C223.586 22.3021 223.703 22.0059 223.938 21.7715C224.178 21.5306 224.51 21.4102 224.934 21.4102C225.35 21.4102 225.679 21.5306 225.92 21.7715C226.161 22.0059 226.281 22.3021 226.281 22.6602C226.281 23.0117 226.161 23.3047 225.92 23.5391C225.679 23.7734 225.35 23.8906 224.934 23.8906C224.51 23.8906 224.178 23.7734 223.938 23.5391C223.703 23.3047 223.586 23.0117 223.586 22.6602ZM231.018 27.6895V36H228.664V25.4336H230.881L231.018 27.6895ZM230.598 30.3262L229.836 30.3164C229.842 29.5677 229.947 28.8809 230.148 28.2559C230.357 27.6309 230.643 27.0938 231.008 26.6445C231.379 26.1953 231.822 25.8503 232.336 25.6094C232.85 25.362 233.423 25.2383 234.055 25.2383C234.562 25.2383 235.021 25.3099 235.432 25.4531C235.848 25.5898 236.203 25.8145 236.496 26.127C236.796 26.4395 237.023 26.8464 237.18 27.3477C237.336 27.8424 237.414 28.4512 237.414 29.1738V36H235.051V29.1641C235.051 28.6562 234.976 28.2559 234.826 27.9629C234.683 27.6634 234.471 27.4518 234.191 27.3281C233.918 27.1979 233.576 27.1328 233.166 27.1328C232.762 27.1328 232.401 27.2174 232.082 27.3867C231.763 27.556 231.493 27.7871 231.271 28.0801C231.057 28.373 230.891 28.7116 230.773 29.0957C230.656 29.4798 230.598 29.89 230.598 30.3262ZM242.189 21V36H239.826V21H242.189ZM248.752 25.4336L244.152 30.5312L241.633 33.1094L241.018 31.1172L242.922 28.7637L245.91 25.4336H248.752ZM246.418 36L242.99 31.0391L244.475 29.3887L249.143 36H246.418ZM254.709 36.1953C253.928 36.1953 253.221 36.0684 252.59 35.8145C251.965 35.554 251.431 35.1927 250.988 34.7305C250.552 34.2682 250.217 33.7246 249.982 33.0996C249.748 32.4746 249.631 31.8008 249.631 31.0781V30.6875C249.631 29.8607 249.751 29.112 249.992 28.4414C250.233 27.7708 250.568 27.1979 250.998 26.7227C251.428 26.2409 251.936 25.873 252.521 25.6191C253.107 25.3652 253.742 25.2383 254.426 25.2383C255.181 25.2383 255.842 25.3652 256.408 25.6191C256.975 25.873 257.443 26.2311 257.814 26.6934C258.192 27.1491 258.472 27.6927 258.654 28.3242C258.843 28.9557 258.938 29.6523 258.938 30.4141V31.4199H250.773V29.7305H256.613V29.5449C256.6 29.1217 256.516 28.7246 256.359 28.3535C256.21 27.9824 255.979 27.6829 255.666 27.4551C255.354 27.2272 254.937 27.1133 254.416 27.1133C254.025 27.1133 253.677 27.1979 253.371 27.3672C253.072 27.5299 252.821 27.7676 252.619 28.0801C252.417 28.3926 252.261 28.7702 252.15 29.2129C252.046 29.6491 251.994 30.1406 251.994 30.6875V31.0781C251.994 31.5404 252.056 31.9701 252.18 32.3672C252.31 32.7578 252.499 33.0996 252.746 33.3926C252.993 33.6855 253.293 33.9167 253.645 34.0859C253.996 34.2487 254.396 34.3301 254.846 34.3301C255.412 34.3301 255.917 34.2161 256.359 33.9883C256.802 33.7604 257.186 33.4382 257.512 33.0215L258.752 34.2227C258.524 34.5547 258.228 34.8737 257.863 35.1797C257.499 35.4792 257.053 35.7233 256.525 35.9121C256.005 36.1009 255.399 36.1953 254.709 36.1953ZM267.219 33.8125V21H269.582V36H267.443L267.219 33.8125ZM260.344 30.834V30.6289C260.344 29.8281 260.438 29.099 260.627 28.4414C260.816 27.7773 261.089 27.2077 261.447 26.7324C261.805 26.2507 262.242 25.8828 262.756 25.6289C263.27 25.3685 263.85 25.2383 264.494 25.2383C265.132 25.2383 265.692 25.362 266.174 25.6094C266.656 25.8568 267.066 26.2116 267.404 26.6738C267.743 27.1296 268.013 27.6764 268.215 28.3145C268.417 28.946 268.56 29.6491 268.645 30.4238V31.0781C268.56 31.8333 268.417 32.5234 268.215 33.1484C268.013 33.7734 267.743 34.3138 267.404 34.7695C267.066 35.2253 266.652 35.5768 266.164 35.8242C265.682 36.0716 265.119 36.1953 264.475 36.1953C263.837 36.1953 263.26 36.0618 262.746 35.7949C262.238 35.528 261.805 35.1536 261.447 34.6719C261.089 34.1901 260.816 33.6237 260.627 32.9727C260.438 32.3151 260.344 31.6022 260.344 30.834ZM262.697 30.6289V30.834C262.697 31.3158 262.74 31.765 262.824 32.1816C262.915 32.5983 263.055 32.9661 263.244 33.2852C263.433 33.5977 263.677 33.8451 263.977 34.0273C264.283 34.2031 264.647 34.291 265.07 34.291C265.604 34.291 266.044 34.1738 266.389 33.9395C266.734 33.7051 267.004 33.3893 267.199 32.9922C267.401 32.5885 267.538 32.1393 267.609 31.6445V29.877C267.57 29.4928 267.489 29.1348 267.365 28.8027C267.248 28.4707 267.089 28.181 266.887 27.9336C266.685 27.6797 266.434 27.4844 266.135 27.3477C265.842 27.2044 265.493 27.1328 265.09 27.1328C264.66 27.1328 264.296 27.224 263.996 27.4062C263.697 27.5885 263.449 27.8392 263.254 28.1582C263.065 28.4772 262.925 28.8483 262.834 29.2715C262.743 29.6947 262.697 30.1471 262.697 30.6289ZM274.895 21.7812V36H272.443V21.7812H274.895ZM280.041 27.6895V36H277.688V25.4336H279.904L280.041 27.6895ZM279.621 30.3262L278.859 30.3164C278.866 29.5677 278.97 28.8809 279.172 28.2559C279.38 27.6309 279.667 27.0938 280.031 26.6445C280.402 26.1953 280.845 25.8503 281.359 25.6094C281.874 25.362 282.447 25.2383 283.078 25.2383C283.586 25.2383 284.045 25.3099 284.455 25.4531C284.872 25.5898 285.227 25.8145 285.52 26.127C285.819 26.4395 286.047 26.8464 286.203 27.3477C286.359 27.8424 286.438 28.4512 286.438 29.1738V36H284.074V29.1641C284.074 28.6562 283.999 28.2559 283.85 27.9629C283.706 27.6634 283.495 27.4518 283.215 27.3281C282.941 27.1979 282.6 27.1328 282.189 27.1328C281.786 27.1328 281.424 27.2174 281.105 27.3867C280.786 27.556 280.516 27.7871 280.295 28.0801C280.08 28.373 279.914 28.7116 279.797 29.0957C279.68 29.4798 279.621 29.89 279.621 30.3262Z" fill="white"/>
</g>
<defs>
<filter id="filter0_dd_75_6429" x="0.5" y="0" width="351" height="62" filterUnits="userSpaceOnUse" color-interpolation-filters="sRGB">
<feFlood flood-opacity="0" result="BackgroundImageFix"/>
<feColorMatrix in="SourceAlpha" type="matrix" values="0 0 0 0 0 0 0 0 0 0 0 0 0 0 0 0 0 0 127 0" result="hardAlpha"/>
<feOffset dy="2"/>
<feGaussianBlur stdDeviation="1.5"/>
<feColorMatrix type="matrix" values="0 0 0 0 0 0 0 0 0 0 0 0 0 0 0 0 0 0 0.168 0"/>
<feBlend mode="normal" in2="BackgroundImageFix" result="effect1_dropShadow_75_6429"/>
<feColorMatrix in="SourceAlpha" type="matrix" values="0 0 0 0 0 0 0 0 0 0 0 0 0 0 0 0 0 0 127 0" result="hardAlpha"/>
<feOffset/>
<feGaussianBlur stdDeviation="1.5"/>
<feColorMatrix type="matrix" values="0 0 0 0 0 0 0 0 0 0 0 0 0 0 0 0 0 0 0.084 0"/>
<feBlend mode="normal" in2="effect1_dropShadow_75_6429" result="effect2_dropShadow_75_6429"/>
<feBlend mode="normal" in="SourceGraphic" in2="effect2_dropShadow_75_6429" result="shape"/>
</filter>
</defs>
</svg>
