<svg width="60" height="68" viewBox="0 0 60 68" fill="none" xmlns="http://www.w3.org/2000/svg">
<mask id="mask0_24_32" style="mask-type:alpha" maskUnits="userSpaceOnUse" x="0" y="0" width="60" height="68">
<path d="M13.8283 38.7338H9.71738C9.14977 38.7338 8.68964 39.194 8.68964 39.7616V58.261C8.68964 58.8286 9.14977 59.2887 9.71738 59.2887H13.8283C14.396 59.2887 14.8561 58.8286 14.8561 58.261V39.7616C14.8561 39.194 14.396 38.7338 13.8283 38.7338Z" stroke="black" stroke-width="3" stroke-linecap="round" stroke-linejoin="round"/>
<path d="M42.6051 26.4009H38.4942C37.9266 26.4009 37.4664 26.8611 37.4664 27.4287V58.2609C37.4664 58.8286 37.9266 59.2887 38.4942 59.2887H42.6051C43.1727 59.2887 43.6329 58.8286 43.6329 58.2609V27.4287C43.6329 26.8611 43.1727 26.4009 42.6051 26.4009Z" stroke="black" stroke-width="3" stroke-linecap="round" stroke-linejoin="round"/>
<path d="M56.9935 12.0125H52.8826C52.315 12.0125 51.8548 12.4727 51.8548 13.0403V58.261C51.8548 58.8286 52.315 59.2887 52.8826 59.2887H56.9935C57.5611 59.2887 58.0213 58.8286 58.0213 58.261V13.0403C58.0213 12.4727 57.5611 12.0125 56.9935 12.0125Z" stroke="black" stroke-width="3" stroke-linecap="round" stroke-linejoin="round"/>
<path d="M28.2167 1.73512H24.1058C23.5382 1.73512 23.078 2.19525 23.078 2.76286V58.261C23.078 58.8286 23.5382 59.2887 24.1058 59.2887H28.2167C28.7844 59.2887 29.2445 58.8286 29.2445 58.261V2.76286C29.2445 2.19525 28.7844 1.73512 28.2167 1.73512Z" stroke="black" stroke-width="3" stroke-linecap="round" stroke-linejoin="round"/>
<path d="M58 67.2649H4C2.93913 67.2649 1.92172 66.8435 1.17157 66.0933C0.421427 65.3432 0 64.3258 0 63.2649V9.26488C0 8.73445 0.210714 8.22574 0.585786 7.85067C0.960859 7.47559 1.46957 7.26488 2 7.26488C2.53043 7.26488 3.03914 7.47559 3.41421 7.85067C3.78929 8.22574 4 8.73445 4 9.26488V63.2649H58C58.5304 63.2649 59.0391 63.4756 59.4142 63.8507C59.7893 64.2257 60 64.7345 60 65.2649C60 65.7953 59.7893 66.304 59.4142 66.6791C59.0391 67.0542 58.5304 67.2649 58 67.2649Z" fill="black"/>
</mask>
<g mask="url(#mask0_24_32)">
<rect x="-4.73981" y="-3.00468" width="71.492" height="74.6519" fill="url(#paint0_linear_24_32)"/>
</g>
<defs>
<linearGradient id="paint0_linear_24_32" x1="-4.73981" y1="34.5188" x2="66.7522" y2="34.5188" gradientUnits="userSpaceOnUse">
<stop stop-color="#FF6700"/>
<stop offset="1" stop-color="#4879F7"/>
</linearGradient>
</defs>
</svg>
