<svg width="100" height="101" viewBox="0 0 100 101" fill="none" xmlns="http://www.w3.org/2000/svg">
<path d="M12.3952 64.2701L62.2305 14.4473L85.5403 37.7633L35.7035 87.5861L12.3952 64.2701Z" fill="#FFCE31"/>
<path d="M95.7812 7.18763L92.8124 4.21883C87.1873 -1.40628 78.1246 -1.40628 72.3433 4.21883L62.1868 14.3753L85.6248 37.8132L95.7812 27.6568C101.406 22.0317 101.406 12.8127 95.7812 7.18763Z" fill="#ED4C5C"/>
<path d="M55.9086 20.7972L62.315 14.3877L85.6279 37.7006L79.2215 44.1086L55.9086 20.7972Z" fill="#93A2AA"/>
<path d="M58.3398 23.2268L64.7462 16.8188L83.0887 35.1598L76.6792 41.5662L58.3398 23.2268Z" fill="#C7D3D8"/>
<path d="M12.3421 64.2202L2.18567 90.7832L9.21705 97.8146L35.78 87.6581L12.3421 64.2202Z" fill="#FED0AC"/>
<path d="M0.466906 95.4704C-0.93937 99.2205 0.935664 100.939 4.68573 99.533L17.4985 94.6892L5.467 82.6577L0.466906 95.4704Z" fill="#333333"/>
<path d="M12.3265 64.337L55.8585 20.8049L63.5931 28.5394L20.061 72.0715L12.3265 64.337Z" fill="#FFDF85"/>
<path d="M27.9737 79.9107L71.5057 36.3787L79.2403 44.1132L35.7082 87.6452L27.9737 79.9107Z" fill="#FF8736"/>
</svg>
