<svg width="100" height="100" viewBox="0 0 100 100" fill="none" xmlns="http://www.w3.org/2000/svg">
<path d="M78.9825 71.7288L71.9413 78.8117L43.7847 50.4968L50.826 43.4222L78.9825 71.7288Z" fill="url(#paint0_linear_43_17357)"/>
<path opacity="0.2" d="M50.8176 46.972L75.4494 71.7371L71.9329 75.2703L47.3011 50.5051L50.8176 46.972ZM50.8176 43.4222L43.7764 50.4968L71.9329 78.8117L78.9742 71.7371L50.8176 43.4222Z" fill="#424242"/>
<path d="M34.0102 68.3791C52.7913 68.3791 68.0164 53.0719 68.0164 34.1895C68.0164 15.3072 52.7913 0 34.0102 0C15.2291 0 0.00402832 15.3072 0.00402832 34.1895C0.00402832 53.0719 15.2291 68.3791 34.0102 68.3791Z" fill="url(#paint1_radial_43_17357)"/>
<path d="M86.932 71.0871C81.5323 65.6541 75.641 61.8377 70.6997 60.2045C69.3497 59.7545 68.1415 58.9629 67.1332 57.9463L65.65 56.4547L56.6922 65.4542L58.1754 66.9457C59.1837 67.954 59.9753 69.1706 60.417 70.5288C62.0502 75.4952 65.8416 81.4115 71.2413 86.8445C77.3326 92.9691 84.0405 97.0355 89.3152 98.2521L90.0484 98.9937C91.3734 100.319 93.5149 100.319 94.8315 98.9937L96.1564 97.6605C96.4647 97.4605 96.748 97.2355 97.0063 96.9855C97.2647 96.7272 97.4897 96.4439 97.6813 96.1356L99.0062 94.8023C100.331 93.4774 100.331 91.3192 99.0062 89.9943L98.2729 89.2527C97.0647 83.9613 93.0233 77.2117 86.932 71.0871Z" fill="url(#paint2_radial_43_17357)"/>
<path opacity="0.2" d="M34.0104 2.49984C42.4265 2.49984 50.3344 5.7913 56.284 11.7743C68.5749 24.1318 68.5749 44.2472 56.284 56.6048C50.3344 62.5878 42.4265 65.8792 34.0104 65.8792C25.5942 65.8792 17.6864 62.5878 11.7368 56.6048C-0.554132 44.2472 -0.554132 24.1318 11.7368 11.7743C17.6864 5.7913 25.6026 2.49984 34.0104 2.49984ZM34.0104 0C25.3109 0 16.6031 3.34146 9.96188 10.016C-3.32063 23.3652 -3.32063 45.0139 9.96188 58.3714C16.6031 65.0459 25.3026 68.3874 34.0104 68.3874C42.7182 68.3874 51.4176 65.0459 58.0589 58.3714C71.3414 45.0222 71.3414 23.3735 58.0589 10.016C51.4176 3.34146 42.7182 0 34.0104 0Z" fill="#424242"/>
<path opacity="0.2" d="M65.65 59.9962C66.9083 61.1794 68.3665 62.071 69.9081 62.5793C74.6744 64.1626 80.2324 67.904 85.1571 72.8537C90.6901 78.42 94.6899 84.7613 95.8398 89.811L95.9981 90.5109L96.5064 91.0192L97.2397 91.7608C97.5897 92.1192 97.5897 92.6941 97.2397 93.0441L95.9148 94.3773L95.7231 94.569L95.5815 94.8023C95.4731 94.969 95.3648 95.1106 95.2398 95.2273C95.1148 95.3523 94.9815 95.4606 94.8148 95.5689L94.5899 95.7189L94.3982 95.9106L93.0733 97.2438C92.8483 97.4688 92.59 97.5021 92.4567 97.5021C92.3233 97.5021 92.0567 97.4688 91.84 97.2438L91.1067 96.5022L90.5984 95.9939L89.8985 95.8356C84.8738 94.6773 78.5742 90.6692 73.0412 85.1029C68.1165 80.1532 64.3918 74.5619 62.8168 69.7705C62.3085 68.2206 61.4169 66.7374 60.2337 65.4791L65.65 59.9962ZM65.6417 56.4547L56.6839 65.4542L58.1671 66.9457C59.1754 67.954 59.967 69.1706 60.4087 70.5288C62.0419 75.4952 65.8333 81.4115 71.233 86.8445C77.3243 92.9691 84.0322 97.0355 89.3069 98.2521L90.0401 98.9937C90.6984 99.6603 91.565 99.9937 92.4317 99.9937C93.2983 99.9937 94.1649 99.6603 94.8232 98.9937L96.1481 97.6605C96.4564 97.4605 96.7397 97.2355 96.998 96.9855C97.2564 96.7272 97.4813 96.4439 97.673 96.1356L98.9979 94.8023C100.323 93.4774 100.323 91.3192 98.9979 89.9943L98.2646 89.2527C97.0564 83.953 93.015 77.2117 86.9237 71.0871C81.524 65.6541 75.6327 61.8377 70.6914 60.2045C69.3414 59.7545 68.1332 58.9629 67.1249 57.9463L65.6417 56.4547Z" fill="#424242"/>
<path d="M33.9437 61.8045C49.1489 61.8045 61.4753 49.411 61.4753 34.1229C61.4753 18.8348 49.1489 6.44128 33.9437 6.44128C18.7384 6.44128 6.41205 18.8348 6.41205 34.1229C6.41205 49.411 18.7384 61.8045 33.9437 61.8045Z" fill="url(#paint3_radial_43_17357)"/>
<path opacity="0.2" d="M33.9438 8.94113C40.6267 8.94113 46.9096 11.5576 51.6343 16.3073C61.4004 26.1234 61.4004 42.1057 51.6343 51.9218C46.9096 56.6715 40.6267 59.288 33.9438 59.288C27.2609 59.288 20.9779 56.6715 16.2532 51.9218C6.48715 42.1057 6.48715 26.1234 16.2532 16.3073C20.9696 11.5576 27.2609 8.94113 33.9438 8.94113ZM33.9438 6.44128C26.8942 6.44128 19.853 9.14112 14.4783 14.5491C3.72899 25.3568 3.72899 42.8807 14.4783 53.6967C19.853 59.1047 26.9025 61.8045 33.9438 61.8045C40.985 61.8045 48.0345 59.1047 53.4092 53.6967C64.1585 42.889 64.1585 25.3651 53.4092 14.5491C48.0345 9.14112 40.985 6.44128 33.9438 6.44128Z" fill="#039BE5"/>
<path d="M69.3248 60.9129L61.0003 69.2874C60.0587 70.2374 58.5338 70.2374 57.5922 69.2874L56.7922 68.4791C55.8506 67.5292 55.8506 65.9959 56.7922 65.0543L65.1167 56.6799C66.0583 55.7299 67.5832 55.7299 68.5248 56.6799L69.3248 57.4881C70.2664 58.4381 70.2664 59.9713 69.3248 60.9129Z" fill="url(#paint4_radial_43_17357)"/>
<path opacity="0.2" d="M66.8166 57.6381C66.9332 57.6381 67.1499 57.6631 67.3415 57.8548L68.1415 58.6631C68.4331 58.963 68.4331 59.438 68.1415 59.738L59.817 68.1125C59.6254 68.3041 59.4087 68.3291 59.292 68.3291C59.1754 68.3291 58.9587 68.3041 58.7671 68.1125L57.9671 67.3042C57.6755 67.0042 57.6755 66.5292 57.9671 66.2293L66.2916 57.8548C66.4833 57.6715 66.7082 57.6381 66.8166 57.6381ZM66.8166 55.9716C66.1999 55.9716 65.5833 56.2049 65.1167 56.6798L56.7922 65.0543C55.8506 66.0043 55.8506 67.5375 56.7922 68.4791L57.5922 69.2874C58.0588 69.7624 58.6754 69.9957 59.292 69.9957C59.9087 69.9957 60.5253 69.7624 60.9919 69.2874L69.3164 60.9129C70.258 59.963 70.258 58.4297 69.3164 57.4881L68.5165 56.6798C68.0498 56.2132 67.4332 55.9716 66.8166 55.9716Z" fill="#424242"/>
<defs>
<linearGradient id="paint0_linear_43_17357" x1="55.8266" y1="55.5601" x2="61.605" y2="61.3385" gradientUnits="userSpaceOnUse">
<stop stop-color="#EEEEEE"/>
<stop offset="1" stop-color="#9E9E9E"/>
</linearGradient>
<radialGradient id="paint1_radial_43_17357" cx="0" cy="0" r="1" gradientUnits="userSpaceOnUse" gradientTransform="translate(32.7925 0.277733) scale(68.3647 68.3374)">
<stop stop-color="#E0E0E0"/>
<stop offset="0.2274" stop-color="#DBDBDB"/>
<stop offset="0.4939" stop-color="#CDCDCD"/>
<stop offset="0.7789" stop-color="#B5B5B5"/>
<stop offset="1" stop-color="#9E9E9E"/>
</radialGradient>
<radialGradient id="paint2_radial_43_17357" cx="0" cy="0" r="1" gradientUnits="userSpaceOnUse" gradientTransform="translate(66.0416 57.0797) scale(42.9973 42.9973)">
<stop stop-color="#FFA726"/>
<stop offset="0.0404" stop-color="#FFA623"/>
<stop offset="0.5168" stop-color="#FF9800"/>
<stop offset="1" stop-color="#FB8C00"/>
</radialGradient>
<radialGradient id="paint3_radial_43_17357" cx="0" cy="0" r="1" gradientUnits="userSpaceOnUse" gradientTransform="translate(15.8573 16.249) scale(54.2283 54.2283)">
<stop stop-color="#B3E5FC"/>
<stop offset="0.1696" stop-color="#ADE3FC"/>
<stop offset="0.3927" stop-color="#9DDDFB"/>
<stop offset="0.6456" stop-color="#81D4FA"/>
<stop offset="0.9186" stop-color="#5CC7F8"/>
<stop offset="1" stop-color="#4FC3F7"/>
</radialGradient>
<radialGradient id="paint4_radial_43_17357" cx="0" cy="0" r="1" gradientUnits="userSpaceOnUse" gradientTransform="translate(60.9971 58.8856) scale(10.742 10.7377)">
<stop stop-color="#E0E0E0"/>
<stop offset="1" stop-color="#9E9E9E"/>
</radialGradient>
</defs>
</svg>
