<svg width="65" height="61" viewBox="0 0 65 61" fill="none" xmlns="http://www.w3.org/2000/svg">
<path d="M0.134935 41.4291C-0.839108 34.0697 3.70643 22.2729 5.87097 6.36355C6.30388 3.54964 21.0228 0.519287 27.9493 0.519287C29.6809 0.519287 31.1961 8.63631 30.7632 11.4502C30.4385 13.5065 27.5164 12.9654 27.5164 12.9654C26.5423 15.6711 23.6202 14.5888 23.6202 14.5888C22.7544 16.8616 20.1569 15.7793 20.1569 15.7793C19.0747 17.9438 16.6937 16.8616 16.6937 16.8616C14.5291 26.2773 18.5335 25.4115 21.4557 39.5892C21.4557 39.5892 22.3215 39.481 24.5942 34.8273C33.9018 16.104 66.5863 22.0565 64.6383 42.1867C64.2053 46.624 68.9673 53.9834 51.3263 59.503C37.365 63.8321 20.2652 55.4986 20.2652 55.4986C14.4209 57.3385 3.05707 57.2302 2.73238 52.9012C2.4077 47.8145 0.67607 45.217 0.134935 41.4291Z" fill="#FFDD67"/>
<path d="M64.7465 42.1866C65.1794 37.4247 63.7724 33.5285 61.175 30.7146C62.6902 33.312 63.4477 36.4506 63.1231 40.1303C62.6902 44.5676 67.4521 51.9271 49.8111 57.4467C35.8499 61.7757 18.75 53.4423 18.75 53.4423C14.2044 54.8492 6.19565 55.0657 2.84061 53.0093C3.27352 57.2302 14.5291 57.3384 20.3734 55.4986C20.3734 55.4986 37.4733 63.8321 51.4345 59.503C68.9673 53.9834 64.3136 46.624 64.7465 42.1866ZM15.5032 16.7533C12.7975 27.7925 17.2348 27.3595 20.1569 41.3208L21.6721 39.6974C19.5076 25.6279 15.8279 27.3595 16.6937 16.9698C16.0443 16.9698 15.5032 16.7533 15.5032 16.7533Z" fill="#EBA352"/>
<path d="M29.4645 48.2474C38.4473 51.6024 51.9757 48.1391 59.6598 44.5676C56.3048 52.6847 38.4473 57.0138 29.4645 48.2474ZM25.0271 3.54959C24.3778 2.3591 23.0791 2.46732 22.2132 2.79201C22.3215 1.49328 25.4601 0.519237 25.0271 3.54959Z" fill="#EBA352"/>
<path d="M31.629 8.20336C31.3043 5.82237 30.5467 3.44137 29.1398 1.49329C29.8974 3.5496 30.3303 5.71414 30.3303 7.87868C30.3303 8.85272 30.5467 12.316 28.8151 11.8831C27.7328 11.5584 27.7328 10.6926 27.4082 9.71854C26.9752 8.20336 26.1094 6.57996 26.2177 5.06478C25.7847 6.57996 26.3259 8.41982 26.4341 9.93499C26.5423 10.8008 27.1917 13.29 26.0012 13.6147C25.3518 13.8312 24.5943 13.3983 24.0531 13.0736C23.8367 12.9654 23.7284 12.0995 23.6202 11.7749C23.1873 10.2597 22.3215 8.52804 22.4297 6.90464C21.9968 8.31159 22.4297 10.0432 22.5379 11.5584C22.6462 12.4242 23.0791 14.4805 21.9968 14.9134C20.6981 15.5628 20.5898 14.0476 20.3734 13.29C19.9405 11.8831 19.2911 10.2597 19.2911 8.7445C18.8582 10.5844 19.3994 12.7489 19.3994 14.5888C19.3994 15.5628 17.343 16.3204 16.5854 15.7793C15.395 14.9134 15.1785 12.7489 14.962 11.3419C15.2867 11.7749 15.8279 12.4242 16.4772 12.316C15.9361 11.6666 15.6114 10.6926 15.2867 9.93499C14.962 9.28563 14.2045 7.87868 13.3386 7.87868C13.4469 8.09513 14.2045 9.93499 14.0962 10.0432C13.7715 10.5844 13.4469 11.2337 13.014 11.7749C12.6893 12.2078 11.7152 13.7229 10.9576 13.29C10.0918 12.7489 9.87537 11.4502 9.65892 10.5844C9.76715 11.6666 9.65892 13.29 10.7412 13.9394C11.7152 14.5888 12.9057 13.6147 13.5551 12.9654C13.7715 15.1299 14.7456 18.052 17.4513 17.8356C17.9924 17.8356 18.6418 17.6191 19.1829 17.4027C19.6158 17.1862 20.1569 16.6451 20.5898 16.8615C21.7803 17.1862 22.9708 16.9697 23.8367 16.1039C24.2696 15.671 24.1613 15.4546 24.7025 15.5628C25.3518 15.671 26.0012 15.7793 26.5423 15.5628C27.0835 15.4546 27.5164 15.1299 27.8411 14.697C28.0575 14.4805 28.1657 14.2641 28.274 13.9394C28.4904 13.5065 28.7069 13.7229 29.1398 13.7229C31.9537 13.7229 31.8455 10.1514 31.629 8.20336Z" fill="#EBA352"/>
<path d="M28.9233 2.03439C28.274 0.843897 26.9752 0.952124 26.1094 1.27681C26.2177 0.0863076 29.4645 -0.887735 28.9233 2.03439ZM21.8886 5.17298C21.2392 3.98248 19.9405 4.09071 19.0747 4.41539C19.1829 3.11666 22.3215 2.14262 21.8886 5.17298ZM18.2089 6.90461C17.5595 5.71411 16.2608 5.82234 15.395 6.14702C15.5032 4.8483 18.75 3.87425 18.2089 6.90461Z" fill="#EBA352"/>
</svg>
